<?xml version="1.0" encoding="utf-8"?>
<!-- Generator: Adobe Illustrator 15.0.0, SVG Export Plug-In . SVG Version: 6.00 Build 0)  -->
<!DOCTYPE svg PUBLIC "-//W3C//DTD SVG 1.1//EN" "http://www.w3.org/Graphics/SVG/1.1/DTD/svg11.dtd">
<svg version="1.1" id="Layer_1" xmlns="http://www.w3.org/2000/svg" xmlns:xlink="http://www.w3.org/1999/xlink" x="0px" y="0px"
	 width="1024px" height="190px" viewBox="0 0 1024 190" enable-background="new 0 0 1024 190" xml:space="preserve">
<g>
	<path fill="#FFFFFF" d="M121.015,61.451l-4.054,19.071c-0.321,1.512-1.807,2.736-3.318,2.736H84.467
		c-1.511,0-2.997,1.226-3.318,2.736l-8.216,38.655c-1.356,6.379-7.628,11.551-14.007,11.551c-6.38,0-10.453-5.172-9.097-11.551
		l8.216-38.655c0.321-1.511-0.644-2.736-2.156-2.736H26.714c-1.512,0-2.476-1.225-2.155-2.736l4.055-19.077
		c2.072-9.746,11.651-17.646,21.397-17.646h57.105C116.865,43.799,123.088,51.702,121.015,61.451z"/>
	<path fill="#FFFFFF" d="M223.417,61.451l-4.054,19.071c-0.321,1.512-1.806,2.736-3.318,2.736h-63.826
		c-1.512,0-2.998,1.226-3.319,2.736l-0.711,3.348c-0.321,1.512,0.644,2.737,2.155,2.737h57.737c4.875,0,7.986,3.95,6.95,8.825
		c-1.036,4.874-5.827,8.825-10.702,8.825h-57.737c-1.512,0-2.998,1.227-3.318,2.736l-0.711,3.348
		c-0.321,1.512,0.644,2.736,2.155,2.736h57.737c4.875,0,7.985,3.951,6.949,8.826s-5.826,8.824-10.701,8.824h-65.925
		c-9.749,0-15.972-7.902-13.899-17.65l12.138-57.105c2.072-9.746,11.651-17.646,21.397-17.646h57.105
		C219.266,43.799,225.489,51.702,223.417,61.451z"/>
	<path fill="#FFFFFF" d="M325.346,61.451l-4.054,19.071c-0.321,1.512-1.807,2.736-3.318,2.736h-63.825
		c-1.511,0-2.999,1.226-3.32,2.736l-6.338,29.819c-0.321,1.512,0.645,2.736,2.156,2.736h57.736c4.875,0,7.986,3.951,6.95,8.826
		s-5.827,8.824-10.702,8.824h-65.925c-9.749,0-15.972-7.902-13.899-17.65l12.138-57.105c2.072-9.746,11.651-17.646,21.397-17.646
		h57.105C321.194,43.799,327.418,51.702,325.346,61.451z"/>
	<path fill="#FFFFFF" d="M429.047,55.351l-14.73,69.3c-1.356,6.379-7.627,11.551-14.007,11.551h-16.357
		c-6.379,0-10.452-5.172-9.096-11.551l2.908-13.68c0.321-1.512-0.643-2.736-2.155-2.736h-8.01c-1.511,0-2.997,1.225-3.318,2.736
		l-2.908,13.68c-1.356,6.379-7.627,11.551-14.007,11.551h-16.356c-6.38,0-10.453-5.172-9.097-11.551l14.73-69.3
		c1.356-6.38,7.627-11.552,14.007-11.552h16.356c6.38,0,10.453,5.172,9.096,11.552l-7.542,35.484
		c-0.321,1.512,0.644,2.736,2.155,2.736h8.01c1.512,0,2.997-1.225,3.318-2.736l7.542-35.484c1.356-6.38,7.627-11.552,14.007-11.552
		h16.357C426.331,43.799,430.404,48.971,429.047,55.351z"/>
	<path fill="#FFFFFF" d="M551.458,54.967l-13.516,63.59c-2.072,9.744-11.651,17.645-21.396,17.645h-28.158l0.004-0.006
		c-0.001,0-0.003,0-0.003,0c-6.251,0.221-10.295-4.744-8.987-10.9l8.988-42.282c0.321-1.512-0.643-2.737-2.155-2.737h-8.01
		c-1.335,0-2.645,0.955-3.156,2.217l-8.961,42.158c-1.356,6.379-7.627,11.551-14.007,11.551h-18.688
		c-6.38,0-10.453-5.172-9.097-11.551l13.435-63.205c2.072-9.746,11.651-17.646,21.397-17.646h48.482
		c6.022,0,9.867,4.883,8.586,10.906l-13.305,62.6c-0.321,1.512,0.645,2.738,2.155,2.738h8.008c1.512,0,2.999-1.227,3.32-2.738
		l13.306-62.6c1.309-6.155,7.462-11.12,13.62-10.899C549.188,44.017,552.716,49.053,551.458,54.967z"/>
	<path fill="#FFFFFF" d="M652.483,61.451l-12.138,57.104c-2.072,9.746-11.651,17.646-21.397,17.646h-57.11
		c-9.746,0-15.968-7.9-13.896-17.646l12.139-57.109c2.071-9.746,11.651-17.646,21.397-17.646h57.105
		C648.332,43.799,654.556,51.702,652.483,61.451z M573.783,118.551h40.724c1.512,0,2.996-1.225,3.317-2.736l6.339-29.819
		c0.321-1.511-0.644-2.736-2.155-2.736h-40.724c-1.511,0-2.996,1.226-3.317,2.736l-6.339,29.819
		C571.307,117.326,572.272,118.551,573.783,118.551z"/>
	<path fill="#FFFFFF" d="M754.886,61.451l-9.681,45.543c-0.321,1.51-1.806,2.736-3.317,2.736h-63.826
		c-1.512,0-2.998,1.227-3.319,2.736l-2.59,12.184c-1.355,6.379-7.627,11.551-14.007,11.551c-6.379,0-10.451-5.172-9.096-11.551
		l13.435-63.205c2.071-9.746,11.651-17.646,21.396-17.646h57.105C750.734,43.799,756.958,51.702,754.886,61.451z M732.022,85.995
		c0.321-1.511-0.644-2.736-2.155-2.736h-46.18c-1.512,0-2.997,1.226-3.318,2.736l-0.712,3.348c-0.321,1.512,0.644,2.737,2.155,2.737
		h46.18c1.512,0,2.997-1.226,3.318-2.737L732.022,85.995z"/>
	<path fill="#FFFFFF" d="M760.444,136.201c-6.38,0-10.452-5.172-9.097-11.551l14.73-69.3c1.355-6.38,7.627-11.552,14.007-11.552
		h16.356c6.38,0,10.452,5.172,9.097,11.552l-14.73,69.3c-1.355,6.379-7.627,11.551-14.007,11.551H760.444z"/>
	<path fill="#FFFFFF" d="M906.71,61.451l-4.054,19.071c-0.321,1.512-1.808,2.736-3.318,2.736h-63.825
		c-1.512,0-2.998,1.226-3.319,2.736l-6.339,29.819c-0.321,1.512,0.646,2.736,2.157,2.736h57.735c4.875,0,7.986,3.951,6.95,8.826
		s-5.827,8.824-10.702,8.824H816.07c-9.749,0-15.973-7.902-13.9-17.65l12.138-57.105c2.071-9.746,11.651-17.646,21.397-17.646
		h57.105C902.559,43.799,908.782,51.702,906.71,61.451z"/>
	<path fill="#FFFFFF" d="M1009.113,61.451l-12.138,57.104c-2.072,9.746-11.651,17.646-21.397,17.646h-57.11
		c-9.746,0-15.968-7.9-13.896-17.646l12.139-57.109c2.071-9.746,11.651-17.646,21.397-17.646h57.105
		C1004.962,43.799,1011.186,51.702,1009.113,61.451z M930.413,118.551h40.724c1.512,0,2.996-1.225,3.317-2.736l6.339-29.819
		c0.321-1.511-0.644-2.736-2.155-2.736h-40.724c-1.511,0-2.996,1.226-3.317,2.736l-6.339,29.819
		C927.937,117.326,928.902,118.551,930.413,118.551z"/>
	<g>
		<path fill="#1E1E1C" d="M622.008,83.259h-40.724c-1.511,0-2.996,1.226-3.317,2.736l-6.339,29.819
			c-0.321,1.512,0.645,2.736,2.155,2.736h40.724c1.512,0,2.996-1.225,3.317-2.736l6.339-29.819
			C624.484,84.484,623.52,83.259,622.008,83.259z M609.368,108.551h-26.196l3.251-15.292h26.196L609.368,108.551z"/>
	</g>
	<g>
		<path fill="#1E1E1C" d="M729.763,83.259h-46.18c-1.512,0-2.997,1.226-3.318,2.736l-0.712,3.348
			c-0.321,1.512,0.644,2.737,2.155,2.737h46.18c1.512,0,2.997-1.226,3.318-2.737l0.712-3.348
			C732.239,84.484,731.274,83.259,729.763,83.259z"/>
	</g>
	<g>
		<path fill="#1E1E1C" d="M978.638,83.259h-40.724c-1.511,0-2.996,1.226-3.317,2.736l-6.339,29.819
			c-0.321,1.512,0.645,2.736,2.155,2.736h40.724c1.512,0,2.996-1.225,3.317-2.736l6.339-29.819
			C981.114,84.484,980.149,83.259,978.638,83.259z M965.998,108.551h-26.196l3.251-15.292h26.196L965.998,108.551z"/>
	</g>
	<path fill="#585857" d="M1022.758,35.396c-6.057-7.479-15.083-11.598-25.418-11.598h-57.105c-8.177,0-16.552,2.727-23.795,7.564
		c-5.696-4.854-13.18-7.564-21.503-7.564h-57.105c-7.317,0-14.772,2.154-21.459,6.083c-4.784-3.883-10.972-6.083-17.739-6.083
		h-16.356c-6.774,0-13.63,2.203-19.578,6.137c-5.445-3.974-12.231-6.137-19.69-6.137h-57.105c-8.15,0-16.506,2.713-23.738,7.527
		c-5.691-4.83-13.16-7.527-21.454-7.527h-57.105c-7.199,0-14.548,2.094-21.161,5.913c-4.389-3.577-10.004-5.667-16.281-5.894
		c-0.38-0.013-0.744-0.02-1.11-0.02c-6.37,0-12.797,1.978-18.441,5.525c-4.607-3.535-10.458-5.525-16.854-5.525h-48.482
		c-7.318,0-14.773,2.153-21.459,6.083c-4.785-3.883-10.972-6.083-17.739-6.083H405.72c-6.628,0-13.302,2.088-19.136,5.828
		c-4.731-3.727-10.793-5.828-17.45-5.828h-16.356c-6.759,0-13.604,2.197-19.546,6.115c-5.441-3.959-12.217-6.115-19.658-6.115
		h-57.105c-8.199,0-16.398,2.614-23.567,7.373c-5.675-4.73-13.077-7.373-21.258-7.373h-57.105c-8.172,0-16.544,2.725-23.786,7.559
		c-5.743-4.91-13.191-7.559-21.51-7.559H52.137c-11.503,0-22.664,5.152-30.893,13.308c-0.17,0.163-0.333,0.334-0.5,0.5
		c-0.17,0.163-0.333,0.334-0.5,0.5c-0.17,0.163-0.333,0.334-0.5,0.5c-0.17,0.163-0.333,0.334-0.5,0.5
		c-0.17,0.163-0.333,0.334-0.5,0.5c-0.17,0.163-0.333,0.334-0.5,0.5c-0.17,0.163-0.333,0.334-0.5,0.5
		c-0.17,0.163-0.333,0.334-0.5,0.5c-0.17,0.163-0.333,0.334-0.5,0.5c-0.17,0.163-0.333,0.334-0.5,0.5
		c-0.17,0.163-0.333,0.334-0.5,0.5c-0.17,0.163-0.333,0.334-0.5,0.5c-0.17,0.163-0.333,0.334-0.5,0.5
		c-0.17,0.163-0.333,0.334-0.5,0.5c-0.17,0.163-0.333,0.334-0.5,0.5c-0.17,0.163-0.333,0.334-0.5,0.5
		c-0.17,0.163-0.333,0.334-0.5,0.5c-0.17,0.163-0.333,0.334-0.5,0.5c-0.17,0.163-0.333,0.334-0.5,0.5
		C5.377,52.733,0.688,60.636-1.167,69.366l-4.055,19.077c-1.353,6.365,0.073,12.734,3.912,17.475
		c3.778,4.665,9.573,7.341,15.899,7.341h9.564l-4.105,19.313c-1.853,8.718,0.052,17.382,5.227,23.772
		c5.073,6.265,12.919,9.857,21.526,9.857c9.583,0,18.879-4.307,25.712-11.116c0.169-0.163,0.333-0.333,0.5-0.5
		c0.169-0.163,0.333-0.333,0.5-0.5c0.169-0.163,0.333-0.333,0.5-0.5c0.169-0.163,0.333-0.333,0.5-0.5
		c0.169-0.163,0.333-0.333,0.5-0.5c0.169-0.163,0.333-0.333,0.5-0.5c0.169-0.163,0.333-0.333,0.5-0.5
		c0.169-0.163,0.333-0.333,0.5-0.5c0.169-0.163,0.333-0.333,0.5-0.5c0.169-0.163,0.333-0.333,0.5-0.5
		c0.169-0.163,0.333-0.333,0.5-0.5c0.169-0.163,0.333-0.333,0.5-0.5c0.169-0.163,0.333-0.333,0.5-0.5
		c0.169-0.163,0.333-0.333,0.5-0.5c0.169-0.163,0.333-0.333,0.5-0.5c0.169-0.163,0.333-0.333,0.5-0.5
		c0.169-0.163,0.333-0.333,0.5-0.5c0.169-0.163,0.333-0.333,0.5-0.5c0.169-0.163,0.333-0.333,0.5-0.5
		c2.483-2.388,4.651-5.105,6.419-8.063c0.595,6.346,2.906,12.269,6.802,17.08c6.057,7.479,15.084,11.599,25.419,11.599h65.925
		c6.049,0,12.155-1.923,17.48-5.363c5.267,3.473,11.652,5.363,18.525,5.363h65.925c5.258,0,10.578-1.448,15.398-4.107
		c4.321,2.665,9.463,4.107,14.979,4.107h16.356c6.628,0,13.302-2.087,19.137-5.828c4.731,3.727,10.794,5.828,17.449,5.828h16.357
		c5.882,0,11.853-1.66,17.245-4.701c4.504,3.025,9.995,4.701,15.858,4.701h18.688c6.547,0,13.165-2.052,18.966-5.727
		c4.717,3.661,10.726,5.727,17.282,5.727h18.688h9.508c8.175,0,16.549-2.727,23.792-7.563c5.695,4.853,13.178,7.563,21.499,7.563
		h57.11c7.292,0,14.727-2.142,21.399-6.05c4.78,3.861,10.952,6.05,17.693,6.05c9.8,0,19.303-4.499,26.175-11.577
		c0.167-0.166,0.336-0.331,0.5-0.5c0.167-0.166,0.336-0.331,0.5-0.5c0.167-0.166,0.336-0.331,0.5-0.5
		c0.167-0.166,0.336-0.331,0.5-0.5c0.167-0.166,0.336-0.331,0.5-0.5c0.167-0.166,0.336-0.331,0.5-0.5
		c0.167-0.166,0.336-0.331,0.5-0.5c0.167-0.166,0.336-0.331,0.5-0.5c0.167-0.166,0.336-0.331,0.5-0.5
		c0.167-0.166,0.336-0.331,0.5-0.5c0.167-0.166,0.336-0.331,0.5-0.5c0.167-0.166,0.336-0.331,0.5-0.5
		c0.167-0.166,0.336-0.331,0.5-0.5c0.167-0.166,0.336-0.331,0.5-0.5c0.167-0.166,0.336-0.331,0.5-0.5
		c0.167-0.166,0.336-0.331,0.5-0.5c0.167-0.166,0.336-0.331,0.5-0.5c0.167-0.166,0.336-0.331,0.5-0.5
		c0.167-0.166,0.336-0.331,0.5-0.5c1.668-1.657,3.188-3.464,4.531-5.394h34.825c0.133,6.168,2.166,11.987,5.912,16.614
		c5.073,6.264,12.919,9.856,21.525,9.856h16.356c6.76,0,13.604-2.196,19.545-6.114c5.441,3.958,12.219,6.114,19.659,6.114h65.925
		c6.156,0,12.34-1.974,17.711-5.509c5.304,3.567,11.768,5.509,18.762,5.509h57.11c11.504,0,22.665-5.152,30.894-13.308
		c0.17-0.164,0.333-0.335,0.5-0.5c0.17-0.164,0.333-0.335,0.5-0.5c0.17-0.164,0.333-0.335,0.5-0.5c0.17-0.164,0.333-0.335,0.5-0.5
		c0.17-0.164,0.333-0.335,0.5-0.5c0.17-0.164,0.333-0.335,0.5-0.5c0.17-0.164,0.333-0.335,0.5-0.5c0.17-0.164,0.333-0.335,0.5-0.5
		c0.17-0.164,0.333-0.335,0.5-0.5c0.17-0.164,0.333-0.335,0.5-0.5c0.17-0.164,0.333-0.335,0.5-0.5c0.17-0.164,0.333-0.335,0.5-0.5
		c0.17-0.164,0.333-0.335,0.5-0.5c0.17-0.164,0.333-0.335,0.5-0.5c0.17-0.164,0.333-0.335,0.5-0.5c0.17-0.164,0.333-0.335,0.5-0.5
		c0.17-0.164,0.333-0.335,0.5-0.5c0.17-0.164,0.333-0.335,0.5-0.5c0.17-0.164,0.333-0.335,0.5-0.5
		c6.367-6.127,11.056-14.029,12.911-22.76l12.138-57.104C1031.094,53.184,1028.857,42.93,1022.758,35.396z M1019.113,61.451
		l-12.138,57.104c-1.858,8.744-7.603,16.548-15.038,21.617c0,0.001,0,0.001,0,0.001c-0.003,0.002-0.007,0.004-0.01,0.006
		c-1.377,0.938-2.811,1.784-4.29,2.522c-0.003,0.002-0.006,0.004-0.009,0.005c-0.714,0.356-1.438,0.686-2.17,0.991
		c-0.06,0.025-0.119,0.05-0.18,0.074c-0.722,0.297-1.451,0.571-2.188,0.817c-0.035,0.011-0.069,0.021-0.104,0.032
		c-0.734,0.242-1.475,0.458-2.221,0.646c-0.031,0.008-0.063,0.018-0.094,0.025c-0.719,0.179-1.442,0.327-2.169,0.454
		c-0.121,0.021-0.241,0.043-0.361,0.063c-0.705,0.115-1.411,0.206-2.121,0.27c-0.119,0.011-0.238,0.018-0.357,0.027
		c-0.736,0.057-1.475,0.095-2.213,0.095h-57.11c-8.082,0-14.623-3.486-18.504-9.034c-0.152,0.185-0.313,0.36-0.47,0.541l0,0
		c-1.745,1.999-3.799,3.731-6.05,5.103c-0.016,0.011-0.032,0.021-0.048,0.03c-1.13,0.685-2.306,1.276-3.518,1.766
		c-0.046,0.019-0.091,0.039-0.137,0.057c-0.578,0.229-1.164,0.435-1.756,0.614c-0.085,0.026-0.171,0.049-0.256,0.074
		c-0.548,0.16-1.1,0.301-1.656,0.416c-0.056,0.012-0.111,0.026-0.168,0.038c-0.579,0.115-1.161,0.2-1.746,0.266
		c-0.129,0.015-0.258,0.026-0.388,0.038c-0.591,0.055-1.184,0.092-1.777,0.092h-65.925c-8.47,0-15.243-3.83-19.041-9.846
		c-0.86,0.997-1.793,1.932-2.778,2.807c0,0.001-0.001,0.002-0.002,0.003c-0.03,0.026-0.06,0.054-0.09,0.08
		c-0.057,0.051-0.111,0.104-0.168,0.153c-0.001,0.001-0.002,0.002-0.003,0.003c-0.003,0.002-0.005,0.005-0.008,0.007
		c-0.132,0.113-0.268,0.222-0.4,0.333c-0.209,0.175-0.417,0.349-0.63,0.518c-0.161,0.127-0.324,0.25-0.487,0.374
		c-0.194,0.146-0.389,0.292-0.585,0.434c-0.169,0.121-0.339,0.241-0.51,0.359c-0.204,0.141-0.411,0.277-0.618,0.413
		c-0.166,0.107-0.33,0.217-0.497,0.32c-0.259,0.162-0.522,0.316-0.786,0.47c-0.164,0.096-0.328,0.191-0.494,0.284
		c-0.324,0.18-0.65,0.354-0.98,0.52c-0.157,0.079-0.316,0.153-0.476,0.229c-0.242,0.117-0.485,0.231-0.73,0.341
		c-0.17,0.075-0.34,0.147-0.511,0.22c-0.246,0.104-0.493,0.203-0.742,0.299c-0.164,0.063-0.328,0.128-0.493,0.188
		c-0.285,0.104-0.573,0.2-0.861,0.294c-0.129,0.042-0.256,0.087-0.385,0.127c-0.412,0.127-0.828,0.243-1.245,0.349
		c-0.108,0.027-0.218,0.049-0.326,0.075c-0.318,0.075-0.638,0.146-0.958,0.21c-0.152,0.029-0.305,0.055-0.458,0.082
		c-0.284,0.05-0.568,0.095-0.854,0.135c-0.157,0.021-0.314,0.042-0.473,0.061c-0.298,0.035-0.597,0.063-0.896,0.086
		c-0.139,0.011-0.276,0.024-0.414,0.032c-0.435,0.025-0.869,0.042-1.305,0.042h-16.356c-11.884,0-19.496-9.668-16.971-21.551
		l1.114-5.24c-0.946,0.203-1.906,0.32-2.87,0.32h-56.563l-1.046,4.92c-1.636,7.695-7.138,14.443-14.034,18.257
		c-0.28,0.154-0.56,0.31-0.845,0.454c-0.311,0.158-0.624,0.31-0.94,0.456s-0.635,0.284-0.956,0.418
		c-0.29,0.121-0.579,0.246-0.873,0.356c-0.585,0.222-1.176,0.426-1.772,0.604c-0.188,0.056-0.38,0.098-0.57,0.149
		c-0.469,0.128-0.939,0.245-1.414,0.346c-0.235,0.049-0.472,0.091-0.708,0.133c-0.458,0.082-0.917,0.149-1.378,0.204
		c-0.213,0.025-0.425,0.055-0.638,0.073c-0.667,0.061-1.335,0.101-2.004,0.101c-7.536,0-13.35-3.892-15.954-9.768
		c-6.344,5.97-14.708,9.768-23.139,9.768h-57.11c-9.359,0-16.646-4.68-20.134-11.816c-0.16,0.175-0.329,0.342-0.492,0.514l0,0
		c-0.47,0.495-0.952,0.977-1.448,1.445c-0.001,0.002-0.002,0.003-0.003,0.004c-0.016,0.015-0.032,0.03-0.049,0.046
		c-0.059,0.056-0.117,0.112-0.178,0.168c-0.001,0.002-0.002,0.003-0.003,0.004c-0.002,0.002-0.004,0.003-0.006,0.005
		c-0.369,0.344-0.745,0.678-1.127,1.007c-0.043,0.036-0.085,0.073-0.128,0.11c-0.366,0.312-0.738,0.616-1.116,0.915
		c-0.059,0.046-0.118,0.093-0.178,0.139c-0.372,0.29-0.748,0.574-1.13,0.85c-0.064,0.047-0.129,0.092-0.193,0.138
		c-0.386,0.274-0.774,0.543-1.17,0.803c-0.051,0.033-0.102,0.065-0.152,0.098c-1.672,1.088-3.423,2.036-5.23,2.828
		c-0.113,0.05-0.225,0.104-0.338,0.151c-0.318,0.136-0.64,0.26-0.961,0.386c-0.209,0.082-0.416,0.165-0.626,0.242
		c-0.289,0.106-0.58,0.205-0.871,0.304c-0.247,0.083-0.493,0.166-0.741,0.243c-0.274,0.086-0.549,0.165-0.824,0.243
		c-0.271,0.077-0.543,0.15-0.815,0.22c-0.261,0.066-0.523,0.131-0.786,0.19c-0.292,0.067-0.586,0.128-0.88,0.186
		c-0.248,0.05-0.497,0.099-0.746,0.142c-0.318,0.055-0.638,0.101-0.958,0.146c-0.229,0.032-0.456,0.066-0.685,0.094
		c-0.363,0.042-0.728,0.071-1.092,0.1c-0.189,0.015-0.377,0.036-0.566,0.047c-0.554,0.033-1.109,0.052-1.665,0.052h-9.508h-18.649
		h-0.038c-7.581,0-13.409-3.943-15.99-9.877l-0.033-0.02c-0.876,1.021-1.827,1.978-2.834,2.87c0,0.001-0.001,0.001-0.001,0.002
		c-0.051,0.045-0.1,0.092-0.15,0.137l0,0c-0.041,0.036-0.08,0.074-0.121,0.109l0,0.001c0,0-0.001,0.001-0.002,0.002
		c-0.007,0.006-0.015,0.012-0.022,0.018c-0.333,0.288-0.674,0.567-1.02,0.84c-0.112,0.089-0.228,0.174-0.341,0.261
		c-0.247,0.188-0.495,0.374-0.747,0.555c-0.132,0.095-0.265,0.188-0.398,0.28c-0.247,0.172-0.497,0.338-0.749,0.502
		c-0.13,0.084-0.258,0.169-0.389,0.25c-0.306,0.191-0.615,0.376-0.926,0.555c-0.076,0.044-0.151,0.091-0.227,0.134
		c-0.388,0.219-0.78,0.426-1.177,0.625c-0.112,0.057-0.225,0.108-0.337,0.163c-0.29,0.141-0.581,0.277-0.875,0.407
		c-0.145,0.064-0.29,0.126-0.436,0.188c-0.272,0.115-0.546,0.226-0.821,0.331c-0.146,0.057-0.292,0.112-0.439,0.166
		c-0.302,0.11-0.606,0.213-0.912,0.312c-0.116,0.038-0.231,0.079-0.348,0.114c-0.42,0.13-0.842,0.249-1.266,0.355
		c-0.083,0.021-0.168,0.037-0.252,0.058c-0.343,0.082-0.687,0.159-1.033,0.227c-0.146,0.028-0.293,0.053-0.439,0.078
		c-0.29,0.052-0.581,0.098-0.872,0.138c-0.156,0.021-0.311,0.042-0.467,0.061c-0.3,0.035-0.601,0.063-0.902,0.086
		c-0.137,0.011-0.274,0.024-0.412,0.032c-0.436,0.025-0.872,0.042-1.308,0.042h-18.688c-6.646,0-11.954-3.025-14.902-7.769
		c-4.964,4.742-11.556,7.769-18.201,7.769h-16.357c-7.707,0-13.618-4.066-16.132-10.166c-1.017,1.215-2.137,2.344-3.335,3.381
		c0,0.001-0.001,0.001-0.001,0.002c-0.044,0.037-0.088,0.073-0.132,0.11c-0.031,0.027-0.063,0.053-0.095,0.08c0,0,0,0,0,0
		c-0.001,0.001-0.003,0.003-0.005,0.004c-1.167,0.989-2.406,1.886-3.704,2.679c-0.059,0.036-0.117,0.072-0.176,0.107
		c-0.289,0.174-0.58,0.343-0.874,0.506c-0.068,0.038-0.138,0.074-0.206,0.111c-0.865,0.47-1.75,0.893-2.653,1.267
		c-0.157,0.064-0.313,0.131-0.471,0.192c-0.226,0.089-0.453,0.172-0.681,0.254c-0.196,0.071-0.394,0.14-0.592,0.206
		c-0.208,0.069-0.416,0.138-0.625,0.202c-0.258,0.079-0.517,0.15-0.777,0.221c-0.156,0.043-0.311,0.09-0.468,0.129
		c-0.407,0.102-0.815,0.191-1.226,0.272c-0.149,0.029-0.298,0.053-0.447,0.079c-0.291,0.052-0.582,0.1-0.875,0.141
		c-0.159,0.021-0.317,0.041-0.477,0.061c-0.3,0.035-0.601,0.063-0.902,0.087c-0.14,0.011-0.279,0.024-0.419,0.032
		c-0.437,0.026-0.875,0.043-1.313,0.043h-16.356c-6.241,0-11.301-2.669-14.336-6.923c-4.352,4.222-10.173,6.923-16.042,6.923
		h-65.925c-7.934,0-14.378-3.363-18.284-8.733c-0.765,0.898-1.596,1.741-2.476,2.528c0,0,0,0.001-0.001,0.001l0,0
		c-0.089,0.079-0.174,0.162-0.264,0.24l0,0c0,0,0,0,0,0.001c-0.476,0.414-0.971,0.805-1.475,1.183
		c-0.091,0.067-0.18,0.137-0.271,0.203c-0.496,0.362-1.003,0.707-1.522,1.031c-0.084,0.053-0.17,0.103-0.255,0.153
		c-0.503,0.307-1.014,0.598-1.535,0.866c-0.049,0.025-0.097,0.053-0.146,0.078c-0.546,0.277-1.103,0.528-1.666,0.762
		c-0.114,0.048-0.228,0.094-0.342,0.14c-0.563,0.224-1.132,0.43-1.708,0.607c-0.066,0.02-0.132,0.036-0.199,0.056
		c-0.54,0.161-1.083,0.298-1.631,0.416c-0.101,0.022-0.202,0.047-0.304,0.067c-0.579,0.116-1.161,0.205-1.746,0.271
		c-0.122,0.014-0.244,0.023-0.366,0.035c-0.604,0.056-1.208,0.095-1.814,0.095h-65.925c-15.247,0-25.015-12.404-21.774-27.65
		l5.44-25.596c-0.924,0.194-1.861,0.304-2.802,0.304H89.605l-6.672,31.392c-1.636,7.697-7.141,14.446-14.04,18.26
		c-0.277,0.153-0.555,0.307-0.836,0.45c-0.313,0.159-0.628,0.311-0.946,0.458c-0.313,0.146-0.63,0.281-0.948,0.415
		c-0.293,0.122-0.583,0.248-0.88,0.359c-0.584,0.221-1.173,0.425-1.769,0.603c-0.191,0.057-0.385,0.099-0.577,0.15
		c-0.467,0.127-0.936,0.245-1.408,0.344c-0.236,0.05-0.473,0.092-0.711,0.135c-0.457,0.082-0.916,0.148-1.376,0.203
		c-0.213,0.025-0.425,0.055-0.639,0.073c-0.667,0.061-1.334,0.101-2.003,0.101c-11.884,0-19.497-9.668-16.971-21.551l6.672-31.392
		H24.588c-7.023,0-11.521-5.713-10.029-12.736l4.055-19.077c0.106-0.5,0.227-0.997,0.358-1.491c0.037-0.141,0.082-0.279,0.121-0.419
		c0.1-0.356,0.202-0.711,0.315-1.064c0.047-0.147,0.1-0.293,0.149-0.44c0.116-0.345,0.235-0.689,0.363-1.031
		c0.051-0.137,0.106-0.271,0.159-0.407c0.138-0.354,0.281-0.706,0.431-1.055c0.05-0.116,0.102-0.23,0.153-0.346
		c0.165-0.371,0.335-0.739,0.514-1.104c0.044-0.091,0.09-0.182,0.135-0.272c0.196-0.392,0.4-0.781,0.611-1.166
		c0.034-0.062,0.068-0.124,0.103-0.186c0.233-0.418,0.475-0.833,0.725-1.242c0.018-0.028,0.035-0.057,0.052-0.085
		c6.253-10.153,17.729-17.34,29.332-17.34h57.105c7.386,0,13.719,2.877,17.831,8.1c0.909,1.154,1.677,2.396,2.318,3.706
		c6.521-7.132,15.792-11.806,25.147-11.806h57.105c9.215,0,16.422,4.536,19.972,11.488c6.504-6.952,15.639-11.488,24.854-11.488
		h57.105c8.469,0,15.242,3.831,19.04,9.847c5.104-5.917,12.596-9.847,20.164-9.847h16.356c7.708,0,13.619,4.067,16.132,10.168
		c5.107-6.101,12.747-10.168,20.454-10.168h16.357c7.566,0,13.396,3.922,15.985,9.837c6.353-6.011,14.75-9.837,23.213-9.837h48.482
		c7.411,0,13.109,3.877,15.583,9.709c4.953-5.832,12.3-9.709,19.711-9.709h0.001c0.25,0,0.499,0.005,0.751,0.014
		c7.058,0.254,12.393,4.031,14.773,9.651c6.331-5.91,14.646-9.665,23.028-9.665h57.105c9.329,0,16.599,4.648,20.101,11.746
		c6.518-7.098,15.764-11.746,25.092-11.746h57.105c8.49,0,15.276,3.85,19.068,9.891c5.104-5.941,12.614-9.891,20.2-9.891h16.356
		c7.566,0,13.396,3.922,15.984,9.837c6.354-6.01,14.75-9.837,23.214-9.837h57.105c9.361,0,16.65,4.681,20.138,11.819
		c6.521-7.139,15.8-11.819,25.16-11.819h57.105C1012.587,33.799,1022.354,46.204,1019.113,61.451z"/>
	<path fill="#FFFFFF" d="M256.037,108.551h50.474c3.188,0,6.021,0.803,8.356,2.208l3.784-17.804
		c-0.924,0.194-1.861,0.304-2.801,0.304h-56.563L256.037,108.551z"/>
	<path fill="#FFFFFF" d="M837.398,108.551h50.474c3.188,0,6.021,0.803,8.357,2.208l3.784-17.804
		c-0.924,0.194-1.861,0.304-2.801,0.304h-56.563L837.398,108.551z"/>
	<polygon fill="#FFFFFF" points="965.998,108.551 969.249,93.259 943.053,93.259 939.802,108.551 	"/>
	<polygon fill="#FFFFFF" points="609.368,108.551 612.619,93.259 586.423,93.259 583.172,108.551 	"/>
	<path fill="#1E1E1C" d="M997.34,33.799h-57.105c-9.36,0-18.639,4.681-25.16,11.819c-3.487-7.139-10.776-11.819-20.138-11.819
		h-57.105c-8.464,0-16.86,3.827-23.214,9.837c-2.589-5.915-8.418-9.837-15.984-9.837h-16.356c-7.586,0-15.096,3.949-20.2,9.891
		c-3.792-6.041-10.578-9.891-19.068-9.891h-57.105c-9.328,0-18.574,4.648-25.092,11.746c-3.502-7.098-10.771-11.746-20.101-11.746
		h-57.105c-8.382,0-16.697,3.755-23.028,9.665c-2.381-5.62-7.716-9.397-14.773-9.651c-0.252-0.009-0.501-0.014-0.751-0.014h-0.001
		c-7.411,0-14.758,3.877-19.711,9.709c-2.474-5.832-8.172-9.709-15.583-9.709h-48.482c-8.464,0-16.86,3.826-23.213,9.837
		c-2.589-5.915-8.419-9.837-15.985-9.837H405.72c-7.707,0-15.347,4.067-20.454,10.168c-2.513-6.101-8.424-10.168-16.132-10.168
		h-16.356c-7.568,0-15.06,3.93-20.164,9.847c-3.798-6.016-10.571-9.847-19.04-9.847h-57.105c-9.215,0-18.35,4.536-24.854,11.488
		c-3.55-6.952-10.757-11.488-19.972-11.488h-57.105c-9.354,0-18.626,4.674-25.147,11.806c-0.641-1.31-1.409-2.552-2.318-3.706
		c-4.112-5.223-10.445-8.1-17.831-8.1H52.137c-15.244,0-30.282,12.402-33.522,27.646L14.56,80.522
		c-1.493,7.023,3.006,12.736,10.029,12.736h21.913l-6.672,31.392c-2.526,11.883,5.087,21.551,16.971,21.551
		s23.606-9.668,26.132-21.551l6.672-31.392h21.912c0.94,0,1.877-0.109,2.802-0.304l-5.44,25.596
		c-3.241,15.246,6.527,27.65,21.774,27.65h65.925c6.666,0,13.262-3.492,17.722-8.733c3.906,5.37,10.35,8.733,18.284,8.733h65.925
		c5.868,0,11.689-2.701,16.042-6.923c3.036,4.254,8.095,6.923,14.336,6.923h16.356c7.708,0,15.347-4.066,20.454-10.166
		c2.514,6.1,8.425,10.166,16.132,10.166h16.357c6.645,0,13.237-3.026,18.201-7.769c2.948,4.743,8.256,7.769,14.902,7.769h18.688
		c7.593,0,15.121-3.947,20.225-9.896l0.033,0.02c2.581,5.934,8.409,9.877,15.99,9.877h0.038h18.649h9.508
		c9.359,0,18.637-4.68,25.158-11.816c3.487,7.137,10.774,11.816,20.134,11.816h57.11c8.431,0,16.795-3.798,23.139-9.768
		c2.604,5.876,8.418,9.768,15.954,9.768c11.884,0,23.607-9.668,26.133-21.551l1.046-4.92h56.563c0.964,0,1.924-0.117,2.87-0.32
		l-1.114,5.24c-2.525,11.883,5.087,21.551,16.971,21.551h16.356c7.567,0,15.06-3.93,20.163-9.846
		c3.798,6.016,10.571,9.846,19.041,9.846h65.925c6.792,0,13.508-3.627,17.969-9.034c3.881,5.548,10.422,9.034,18.504,9.034h57.11
		c15.244,0,30.283-12.402,33.523-27.646l12.138-57.104C1022.354,46.204,1012.587,33.799,997.34,33.799z M113.643,83.259H84.467
		c-1.511,0-2.997,1.226-3.318,2.736l-8.216,38.655c-1.356,6.379-7.628,11.551-14.007,11.551c-6.38,0-10.453-5.172-9.097-11.551
		l8.216-38.655c0.321-1.511-0.644-2.736-2.156-2.736H26.714c-1.512,0-2.476-1.225-2.155-2.736l4.055-19.077
		c2.072-9.746,11.651-17.646,21.397-17.646h57.105c9.747,0,15.969,7.9,13.899,17.646l-4.055,19.078
		C116.639,82.035,115.154,83.259,113.643,83.259z M216.045,83.259h-63.826c-1.512,0-2.998,1.226-3.319,2.736l-0.711,3.348
		c-0.321,1.512,0.644,2.737,2.155,2.737h57.737c3.884,0,6.64,2.511,7.08,5.996l-1.203,5.658c-1.921,3.484-5.745,5.996-9.629,5.996
		h-57.737c-1.512,0-2.998,1.227-3.318,2.736l-0.711,3.348c-0.321,1.512,0.644,2.736,2.155,2.736h57.737
		c4.875,0,7.985,3.951,6.949,8.826s-5.826,8.824-10.701,8.824h-65.925c-9.749,0-15.972-7.902-13.899-17.65l8.083-38.025
		c0-0.001,0-0.002,0-0.003l4.054-19.071c0-0.002,0.001-0.005,0.001-0.008c2.072-9.745,11.651-17.645,21.396-17.645h57.105
		c8.682,0,14.551,6.273,14.271,14.532c-0.333,1.022-0.618,2.062-0.842,3.114l-4.381,20.613
		C217.919,82.783,216.988,83.259,216.045,83.259z M314.867,110.759c-2.336-1.405-5.168-2.208-8.356-2.208h-50.474l3.25-15.292
		h56.563c0.94,0,1.877-0.109,2.801-0.304L314.867,110.759z M317.976,83.259h-0.002h-63.823c-1.511,0-2.999,1.226-3.32,2.736
		l-6.338,29.819c-0.321,1.512,0.645,2.736,2.156,2.736h57.733h0.002c4.875,0,7.986,3.951,6.95,8.826s-5.827,8.824-10.702,8.824
		h-0.002h-65.923h-0.002c-9.749,0-15.972-7.902-13.899-17.65l12.138-57.105c0.34-1.599,0.899-3.14,1.61-4.612
		c0.006-0.013,0.012-0.027,0.019-0.041c0.23-0.474,0.479-0.939,0.744-1.397c0.022-0.038,0.043-0.075,0.065-0.113
		c0.261-0.445,0.536-0.882,0.827-1.31c0.028-0.041,0.057-0.081,0.085-0.122c0.295-0.427,0.601-0.846,0.924-1.253
		c0.021-0.026,0.043-0.051,0.063-0.077c1.636-2.043,3.612-3.817,5.805-5.227c0.162-0.104,0.321-0.213,0.485-0.313
		c0.296-0.18,0.598-0.347,0.901-0.513c0.221-0.121,0.44-0.243,0.664-0.357c0.28-0.143,0.564-0.275,0.849-0.406
		c0.257-0.118,0.515-0.231,0.776-0.339c0.27-0.111,0.54-0.217,0.813-0.316c0.288-0.105,0.577-0.202,0.868-0.295
		c0.258-0.082,0.516-0.164,0.777-0.235c0.318-0.088,0.639-0.162,0.96-0.234c0.241-0.054,0.48-0.112,0.723-0.157
		c0.368-0.069,0.737-0.117,1.107-0.164c0.202-0.025,0.402-0.061,0.604-0.08c0.567-0.054,1.136-0.084,1.706-0.085
		c0.007,0,0.014-0.001,0.021-0.001h0.002h57.103h0.002c9.747,0,15.969,7.9,13.901,17.646l-4.056,19.08
		C320.971,82.035,319.487,83.259,317.976,83.259z M414.317,124.65c-1.356,6.379-7.627,11.551-14.007,11.551h-16.357
		c-6.379,0-10.452-5.172-9.096-11.551l2.908-13.68c0.321-1.512-0.643-2.736-2.155-2.736h-8.01c-1.511,0-2.997,1.225-3.318,2.736
		l-2.908,13.68c-1.356,6.379-7.627,11.551-14.007,11.551h-16.356c-6.38,0-10.453-5.172-9.097-11.551l9.378-44.122
		c0-0.002,0.001-0.004,0.001-0.006l4.054-19.071c0.001-0.004,0.001-0.008,0.002-0.013l1.294-6.088
		c1.356-6.38,7.627-11.552,14.007-11.552h16.356c6.38,0,10.453,5.172,9.096,11.552l-7.542,35.484
		c-0.321,1.512,0.644,2.736,2.155,2.736h8.01c1.512,0,2.997-1.225,3.318-2.736l7.542-35.484c1.356-6.38,7.627-11.552,14.007-11.552
		h16.357c6.379,0,10.453,5.172,9.096,11.552L414.317,124.65z M537.942,118.555c-0.001,0.002-0.001,0.005-0.001,0.007
		c-2.074,9.742-11.652,17.64-21.396,17.64h-28.158l0.004-0.006c-0.001,0-0.003,0-0.003,0c-0.134,0.004-0.268,0.006-0.399,0.006
		c-6.023,0-9.868-4.883-8.588-10.906l8.988-42.282c0.321-1.512-0.643-2.737-2.155-2.737h-8.01c-1.335,0-2.645,0.955-3.156,2.217
		l-8.961,42.158c-1.356,6.379-7.627,11.551-14.007,11.551h-18.688c-6.38,0-10.453-5.172-9.097-11.551l13.435-63.205
		c2.072-9.746,11.651-17.646,21.397-17.646h48.482c6.022,0,9.867,4.883,8.586,10.906l-13.305,62.6
		c-0.321,1.512,0.645,2.738,2.155,2.738h8.008c1.512,0,2.999-1.227,3.32-2.738l13.306-62.6c1.28-6.022,7.2-10.906,13.224-10.906
		c0.132,0,0.264,0.002,0.396,0.007c5.865,0.211,9.394,5.247,8.136,11.161l-1.8,8.47L537.942,118.555z M639.839,120.447
		c-2.828,8.855-11.784,15.754-20.891,15.754h-57.11c-9.744,0-15.965-7.897-13.896-17.641c0-0.001,0.001-0.003,0.001-0.004
		l11.716-55.12l0.423-1.991c2.071-9.746,11.651-17.646,21.397-17.646h57.105c9.281,0,15.351,7.169,14.123,16.27
		c-0.119,0.457-0.229,0.916-0.327,1.377L639.839,120.447z M745.101,106.994c-0.321,1.51-1.806,2.736-3.317,2.736h-63.826
		c-1.512,0-2.998,1.227-3.319,2.736l-2.59,12.184c-1.355,6.379-7.627,11.551-14.007,11.551c-6.379,0-10.451-5.172-9.096-11.551
		l0.803-3.775c0.227-0.766,0.432-1.538,0.598-2.32l12.138-57.104c0.099-0.465,0.185-0.927,0.26-1.386
		c2.64-9.099,11.754-16.267,21.033-16.267h57.105c9.748,0,15.972,7.903,13.899,17.652L745.101,106.994z M790.873,124.65
		c-1.355,6.379-7.627,11.551-14.007,11.551H760.51c-6.38,0-10.452-5.172-9.097-11.551l14.73-69.3
		c1.355-6.38,7.627-11.552,14.007-11.552h16.356c6.38,0,10.452,5.172,9.097,11.552l-1.292,6.079
		c-0.001,0.006-0.003,0.01-0.004,0.016l-6.581,30.961L790.873,124.65z M896.229,110.759c-2.337-1.405-5.169-2.208-8.357-2.208
		h-50.474l3.251-15.292h56.563c0.939,0,1.877-0.109,2.801-0.304L896.229,110.759z M899.338,83.259h-63.825
		c-1.512,0-2.998,1.226-3.319,2.736l-6.339,29.819c-0.321,1.512,0.646,2.736,2.157,2.736h57.735c4.875,0,7.986,3.951,6.95,8.826
		s-5.827,8.824-10.702,8.824H816.07c-9.749,0-15.973-7.902-13.9-17.65l5.557-26.145l6.583-30.969
		c2.075-9.742,11.652-17.639,21.396-17.639h57.105c9.746,0,15.969,7.9,13.9,17.646l-4.056,19.079
		C902.334,82.035,900.848,83.259,899.338,83.259z M1009.113,61.451l-12.138,57.104c-2.072,9.746-11.651,17.646-21.397,17.646h-57.11
		c-9.746,0-15.968-7.9-13.896-17.646l8.083-38.028c0-0.001,0.001-0.003,0.001-0.004l4.054-19.071
		c0.001-0.002,0.001-0.005,0.001-0.008c2.072-9.745,11.652-17.645,21.397-17.645h57.105
		C1004.962,43.799,1011.186,51.702,1009.113,61.451z"/>
</g>
</svg>
